<?xml version="1.0" standalone="no"?>
<!DOCTYPE svg PUBLIC "-//W3C//DTD SVG 20010904//EN"
 "http://www.w3.org/TR/2001/REC-SVG-20010904/DTD/svg10.dtd">
<svg version="1.0" xmlns="http://www.w3.org/2000/svg"
 width="144.000000pt" height="144.000000pt" viewBox="0 0 144.000000 144.000000"
 preserveAspectRatio="xMidYMid meet">
<metadata>
Created by potrace 1.14, written by Peter Selinger 2001-2017
</metadata>
<g transform="translate(0.000000,144.000000) scale(0.100000,-0.100000)"
fill="#000000" stroke="none">
<path d="M0 720 l0 -720 720 0 720 0 0 720 0 720 -720 0 -720 0 0 -720z m561
629 c39 -9 62 -21 93 -53 52 -52 66 -98 66 -219 0 -114 -19 -180 -68 -238 -58
-67 -79 -72 -317 -77 l-210 -4 0 298 0 299 50 7 c69 9 323 0 386 -13z m490 11
l96 0 -1 -247 c-1 -230 -2 -250 -21 -283 -37 -62 -74 -75 -205 -75 -65 1 -127
6 -142 13 -27 11 -28 14 -28 90 l0 79 54 -5 c98 -8 96 -13 96 222 0 111 3 206
7 210 4 4 17 5 28 2 11 -3 63 -6 116 -6z m-441 -664 l45 -16 0 -106 0 -105
-25 5 c-123 24 -216 14 -245 -27 -8 -12 -15 -40 -15 -64 0 -83 70 -122 186
-103 105 17 99 22 98 -77 -2 -85 -3 -88 -30 -102 -36 -18 -223 -31 -296 -21
-106 15 -178 78 -209 182 -16 56 -13 229 6 294 20 69 70 123 137 148 57 21
281 16 348 -8z m473 7 c-40 -2 -107 -2 -150 0 -43 1 -10 3 72 3 83 0 118 -2
78 -3z m30 -40 c-56 -2 -151 -2 -210 0 -59 1 -14 3 102 3 116 0 164 -2 108 -3z
m-310 -30 c-7 -2 -19 -2 -25 0 -7 3 -2 5 12 5 14 0 19 -2 13 -5z m95 -40 c-32
-2 -84 -2 -115 0 -32 2 -6 3 57 3 63 0 89 -1 58 -3z m260 0 c-15 -2 -42 -2
-60 0 -18 2 -6 4 27 4 33 0 48 -2 33 -4z m-310 -40 c-27 -2 -69 -2 -95 0 -27
2 -5 3 47 3 52 0 74 -1 48 -3z m309 1 c-3 -3 -12 -4 -19 -1 -8 3 -5 6 6 6 11
1 17 -2 13 -5z m-340 -41 c-20 -2 -52 -2 -70 0 -17 2 0 4 38 4 39 0 53 -2 32
-4z m-34 -30 c-18 -2 -48 -2 -65 0 -18 2 -4 4 32 4 36 0 50 -2 33 -4z m15 -40
c-21 -2 -57 -2 -80 0 -24 2 -7 4 37 4 44 0 63 -2 43 -4z m450 0 c-43 -2 -113
-2 -155 0 -43 1 -8 3 77 3 85 0 120 -2 78 -3z m-460 -40 c-21 -2 -55 -2 -75 0
-21 2 -4 4 37 4 41 0 58 -2 38 -4z m460 0 c-43 -2 -113 -2 -155 0 -43 1 -8 3
77 3 85 0 120 -2 78 -3z m-418 -73 c0 -6 -28 -10 -64 -10 -36 0 -68 5 -71 10
-4 6 20 10 64 10 41 0 71 -4 71 -10z m485 0 c-7 -11 -109 -11 -225 0 -64 6
-52 7 78 8 100 1 151 -1 147 -8z m-497 -37 c-21 -2 -57 -2 -80 0 -24 2 -7 4
37 4 44 0 63 -2 43 -4z m455 0 c-24 -2 -62 -2 -85 0 -24 2 -5 4 42 4 47 0 66
-2 43 -4z m-393 -33 c0 -6 -35 -10 -85 -10 -50 0 -85 4 -85 10 0 6 35 10 85
10 50 0 85 -4 85 -10z m420 0 c0 -6 -37 -10 -90 -10 -53 0 -90 4 -90 10 0 6
37 10 90 10 53 0 90 -4 90 -10z m-360 -40 c0 -6 -42 -10 -105 -10 -63 0 -105
4 -105 10 0 6 42 10 105 10 63 0 105 -4 105 -10z m340 0 c0 -6 -43 -10 -110
-10 -67 0 -110 4 -110 10 0 6 43 10 110 10 67 0 110 -4 110 -10z m-30 -37 c0
-9 -489 -7 -498 1 -3 3 108 6 246 6 139 0 252 -3 252 -7z m-35 -33 c4 -7 -68
-10 -209 -10 -137 0 -216 4 -216 10 0 14 417 14 425 0z m-45 -40 c0 -6 -62
-10 -165 -10 -103 0 -165 4 -165 10 0 6 62 10 165 10 103 0 165 -4 165 -10z
m-110 -40 c0 -5 -22 -10 -50 -10 -27 0 -50 5 -50 10 0 6 23 10 50 10 28 0 50
-4 50 -10z"/>
<path d="M308 1343 c18 -2 45 -2 60 0 15 2 0 4 -33 4 -33 0 -45 -2 -27 -4z"/>
<path d="M360 1050 l0 -110 45 0 c57 0 81 23 90 84 14 93 -13 136 -87 136
l-48 0 0 -110z"/>
<path d="M921 1334 c0 -11 3 -14 6 -6 3 7 2 16 -1 19 -3 4 -6 -2 -5 -13z"/>
<path d="M921 974 c0 -11 3 -14 6 -6 3 7 2 16 -1 19 -3 4 -6 -2 -5 -13z"/>
<path d="M298 683 c6 -2 18 -2 25 0 6 3 1 5 -13 5 -14 0 -19 -2 -12 -5z"/>
<path d="M360 306 c0 -2 8 -10 18 -17 15 -13 16 -12 3 4 -13 16 -21 21 -21 13z"/>
</g>
</svg>
